<?xml version="1.0" encoding="UTF-8" standalone="no"?>
<svg
   xmlns:dc="http://purl.org/dc/elements/1.1/"
   xmlns:cc="http://creativecommons.org/ns#"
   xmlns:rdf="http://www.w3.org/1999/02/22-rdf-syntax-ns#"
   xmlns:svg="http://www.w3.org/2000/svg"
   xmlns="http://www.w3.org/2000/svg"
   xmlns:sodipodi="http://sodipodi.sourceforge.net/DTD/sodipodi-0.dtd"
   xmlns:inkscape="http://www.inkscape.org/namespaces/inkscape"
   width="800"
   height="450"
   viewBox="0 0 211.66666 119.0625"
   version="1.1"
   id="svg2897"
   inkscape:export-filename="C:\Users\Lenovo\code\VNES-Raylib\assets\img\mainmenu_logo.png"
   inkscape:export-xdpi="96.08429"
   inkscape:export-ydpi="96.08429"
   inkscape:version="1.0.1 (3bc2e813f5, 2020-09-07)"
   sodipodi:docname="ANGE_LOGO_SOURCE.svg">
  <defs
     id="defs2891">
    <filter
       inkscape:collect="always"
       style="color-interpolation-filters:sRGB"
       id="filter3683"
       x="-0.043473397"
       width="1.0869468"
       y="-0.1538837"
       height="1.3077674">
      <feGaussianBlur
         inkscape:collect="always"
         stdDeviation="2.1801441"
         id="feGaussianBlur3685" />
    </filter>
  </defs>
  <sodipodi:namedview
     id="base"
     pagecolor="#ffffff"
     bordercolor="#666666"
     borderopacity="1.0"
     inkscape:pageopacity="0.0"
     inkscape:pageshadow="2"
     inkscape:zoom="1.3569519"
     inkscape:cx="389.72757"
     inkscape:cy="220.57932"
     inkscape:document-units="mm"
     inkscape:current-layer="layer1"
     inkscape:document-rotation="0"
     showgrid="false"
     units="px"
     inkscape:window-width="1538"
     inkscape:window-height="877"
     inkscape:window-x="54"
     inkscape:window-y="712"
     inkscape:window-maximized="1" />
  <metadata
     id="metadata2894">
    <rdf:RDF>
      <cc:Work
         rdf:about="">
        <dc:format>image/svg+xml</dc:format>
        <dc:type
           rdf:resource="http://purl.org/dc/dcmitype/StillImage" />
        <dc:title></dc:title>
      </cc:Work>
    </rdf:RDF>
  </metadata>
  <g
     inkscape:label="Layer 1"
     inkscape:groupmode="layer"
     id="layer1">
    <path
       id="rect3493"
       style="opacity:1;fill:#6699ff;stroke:none;stroke-width:2.64583;stroke-miterlimit:4.1;paint-order:stroke fill markers;stop-color:#000000"
       d="m 57.193359,57.996094 c 0,2.822265 0,5.644531 0,8.466797 32.427084,0 64.854171,0 97.281251,0 0,-2.998698 0,-5.997396 0,-8.996094 -32.42708,0 -64.854167,0 -97.281251,0 0,0.176432 0,0.352864 0,0.529297 z" />
    <path
       id="path3536"
       style="opacity:0.856531;fill:#010042;fill-opacity:1;stroke:none;stroke-width:9.8699;stroke-miterlimit:4.1;paint-order:stroke fill markers;filter:url(#filter3683);stop-color:#000000"
       inkscape:transform-center-x="9.3413003e-06"
       inkscape:transform-center-y="8.3721925"
       d="m 339.82227,217.19727 c 6.54387,11.33423 13.08893,22.66772 19.63281,34.00195 h 81.09375 c 6.54386,-11.33388 13.08707,-22.66803 19.63086,-34.00195 z"
       transform="matrix(0.27160409,0,0,0.26458333,-2.8083122,0)" />
    <path
       sodipodi:type="star"
       style="opacity:1;fill:#6699ff;stroke:none;stroke-width:2.64583;stroke-miterlimit:4.1;paint-order:stroke fill markers;stop-color:#000000"
       id="path3481"
       sodipodi:sides="3"
       sodipodi:cx="105.83333"
       sodipodi:cy="50.497595"
       sodipodi:r1="33.488792"
       sodipodi:r2="16.744396"
       sodipodi:arg1="-2.6179939"
       sodipodi:arg2="-1.5707963"
       inkscape:flatsided="true"
       inkscape:rounded="0"
       inkscape:randomized="0"
       d="m 76.831183,33.753201 58.004287,-10e-7 -29.00214,50.233189 z"
       inkscape:transform-center-x="8.0216451e-06"
       inkscape:transform-center-y="8.3721925" />
    <g
       aria-label="ANGE"
       id="text3462"
       style="font-style:normal;font-variant:normal;font-weight:bold;font-stretch:normal;font-size:23.5494px;line-height:1.25;font-family:Quicksand;-inkscape-font-specification:'Quicksand Bold';letter-spacing:0px;word-spacing:0px;fill:#000000;fill-opacity:1;stroke:none;stroke-width:0.264584">
      <path
         d="m 89.772669,53.8786 q 0.117747,0.306142 0.117747,0.565186 0,0.612284 -0.40034,1.012624 -0.40034,0.37679 -0.918427,0.37679 -0.423889,0 -0.77713,-0.259043 -0.329692,-0.259044 -0.518087,-0.706482 l -1.224569,-2.849478 h -7.017721 l -1.224569,2.873027 q -0.164846,0.447439 -0.518087,0.706482 -0.329691,0.235494 -0.730031,0.235494 -0.612284,0 -0.941976,-0.329691 -0.306142,-0.329692 -0.306142,-0.894878 0,-0.211944 0.07065,-0.447438 l 5.863801,-14.082542 q 0.188395,-0.470988 0.565185,-0.730031 0.376791,-0.259044 0.847779,-0.211945 0.423889,0 0.77713,0.259044 0.37679,0.235494 0.541636,0.682932 z m -9.584606,-4.568584 h 4.70988 l -2.37849,-5.510559 z"
         style="font-style:normal;font-variant:normal;font-weight:bold;font-stretch:normal;font-family:Quicksand;-inkscape-font-specification:'Quicksand Bold';stroke-width:0.264584"
         id="path3472" />
      <path
         d="m 93.163783,39.230873 q -0.56519,0 -0.91843,0.37679 -0.35324,0.376791 -0.35324,0.941976 V 54.27894 q 0,0.612284 0.42389,1.036173 0.40034,0.40034 1.01262,0.40034 0.32969,0 0.65938,-0.0942 0.30615,-0.117747 0.44744,-0.306143 l 8.642637,-10.97402 v 10.055594 q 0,0.565185 0.37679,0.941976 0.35324,0.37679 0.94197,0.37679 0.56519,0 0.91843,-0.37679 0.35324,-0.376791 0.35324,-0.941976 V 40.667386 q 0,-0.612284 -0.40034,-1.012624 -0.42389,-0.423889 -1.03617,-0.423889 -0.35324,0 -0.68294,0.141296 -0.35324,0.141297 -0.51808,0.376791 L 94.458993,50.675881 V 40.549639 q 0,-0.565185 -0.35324,-0.941976 -0.37679,-0.37679 -0.94197,-0.37679 z"
         style="font-style:normal;font-variant:normal;font-weight:bold;font-stretch:normal;font-family:Quicksand;-inkscape-font-specification:'Quicksand Bold';stroke-width:0.264584"
         id="path3474" />
      <path
         d="m 121.35238,46.81378 q 0.61228,0 1.01262,0.423889 0.40034,0.40034 0.40034,1.012624 v 4.992473 q 0,0.824229 -0.73003,1.271668 -2.30784,1.436513 -5.06312,1.436513 -2.33139,0 -4.30954,-1.130371 -1.97815,-1.153921 -3.13207,-3.084972 -1.15392,-1.9546 -1.15392,-4.262441 0,-2.307841 1.15392,-4.238892 1.15392,-1.9546 3.13207,-3.084971 1.97815,-1.153921 4.30954,-1.153921 2.33139,0 4.0505,0.941976 0.35324,0.188395 0.51809,0.494537 0.18839,0.306143 0.18839,0.659384 0,0.588735 -0.40034,1.036173 -0.37679,0.423889 -0.94198,0.423889 -0.35324,0 -0.77713,-0.188395 -1.27166,-0.541636 -2.63753,-0.541636 -1.50716,0 -2.77883,0.77713 -1.27166,0.753581 -2.02525,2.048798 -0.73003,1.295217 -0.73003,2.825928 0,1.530711 0.73003,2.825928 0.75359,1.295217 2.02525,2.072347 1.27167,0.753581 2.77883,0.753581 0.65939,0 1.41297,-0.117747 0.75358,-0.117747 1.31876,-0.306142 v -3.061422 h -2.21364 q -0.61229,0 -1.03617,-0.40034 -0.40034,-0.40034 -0.40034,-1.012624 0,-0.612285 0.40034,-1.012624 0.42388,-0.40034 1.03617,-0.40034 z"
         style="font-style:normal;font-variant:normal;font-weight:bold;font-stretch:normal;font-family:Quicksand;-inkscape-font-specification:'Quicksand Bold';stroke-width:0.264584"
         id="path3476" />
      <path
         d="m 134.91682,53.007272 q 0.61228,0 1.01262,0.423889 0.42389,0.40034 0.42389,0.941976 0,0.588735 -0.42389,0.965526 -0.40034,0.37679 -1.01262,0.37679 h -7.88905 q -0.61229,0 -1.03617,-0.40034 -0.40034,-0.423889 -0.40034,-1.036173 V 40.667386 q 0,-0.612284 0.40034,-1.012624 0.42388,-0.423889 1.03617,-0.423889 h 7.88905 q 0.61228,0 1.01262,0.40034 0.42389,0.37679 0.42389,0.989075 0,0.588735 -0.40034,0.965525 -0.40034,0.353241 -1.03617,0.353241 h -6.38189 v 4.003398 h 5.32216 q 0.61229,0 1.01263,0.40034 0.42389,0.37679 0.42389,0.989075 0,0.588735 -0.40034,0.965525 -0.40034,0.353241 -1.03618,0.353241 h -5.32216 v 4.356639 z"
         style="font-style:normal;font-variant:normal;font-weight:bold;font-stretch:normal;font-family:Quicksand;-inkscape-font-specification:'Quicksand Bold';stroke-width:0.264584"
         id="path3478" />
    </g>
    <g
       aria-label="Date on the Seaside"
       id="text3466"
       style="font-style:normal;font-variant:normal;font-weight:normal;font-stretch:normal;font-size:10.5833px;line-height:1.25;font-family:Marlett;-inkscape-font-specification:Marlett;letter-spacing:0px;word-spacing:0px;fill:#000000;fill-opacity:1;stroke:none;stroke-width:0.264583">
      <path
         d="m 60.73798,58.420159 q 1.015997,0 1.703911,0.507998 0.698498,0.497415 1.037164,1.344079 0.349249,0.836081 0.349249,1.852077 0,1.047747 -0.349249,1.883828 -0.338666,0.83608 -1.037164,1.333496 -0.687914,0.486831 -1.703911,0.486831 h -2.698741 q -0.137583,0 -0.232833,-0.08467 -0.08467,-0.09525 -0.08467,-0.232833 v -6.773311 q 0,-0.137583 0.08467,-0.22225 0.09525,-0.09525 0.232833,-0.09525 z m -0.105833,6.783895 q 1.269996,0 1.894411,-0.846664 0.624415,-0.857248 0.624415,-2.233077 0,-0.857247 -0.264583,-1.545161 -0.264582,-0.698498 -0.836081,-1.111247 -0.560915,-0.423332 -1.418162,-0.423332 h -2.243659 v 6.159481 z"
         style="font-style:normal;font-variant:normal;font-weight:normal;font-stretch:normal;font-family:Quicksand;-inkscape-font-specification:Quicksand;stroke-width:0.264583;fill:#000000"
         id="path3501" />
      <path
         d="m 69.564451,60.420402 q 0.137583,0 0.222249,0.09525 0.09525,0.09525 0.09525,0.232832 v 4.762485 q 0,0.137583 -0.09525,0.232833 -0.08467,0.08467 -0.222249,0.08467 -0.137583,0 -0.232833,-0.08467 -0.08467,-0.09525 -0.08467,-0.232833 v -0.709081 q -0.264583,0.476249 -0.793748,0.804331 -0.529165,0.328082 -1.153579,0.328082 -0.709081,0 -1.28058,-0.370415 -0.560914,-0.370416 -0.888997,-1.015997 -0.317499,-0.645581 -0.317499,-1.449912 0,-0.804331 0.328083,-1.439329 0.328082,-0.645581 0.888997,-1.005413 0.571498,-0.359832 1.259412,-0.359832 0.634998,0 1.164163,0.306915 0.529165,0.306916 0.793748,0.804331 v -0.656165 q 0,-0.137582 0.08467,-0.232832 0.09525,-0.09525 0.232833,-0.09525 z m -2.201326,4.921235 q 0.550331,0 0.984246,-0.28575 0.444499,-0.296332 0.687915,-0.80433 0.253999,-0.518582 0.253999,-1.15358 0,-0.613831 -0.253999,-1.12183 -0.243416,-0.507998 -0.687915,-0.793747 -0.433915,-0.296333 -0.984246,-0.296333 -0.550332,0 -0.994831,0.285749 -0.433915,0.28575 -0.687914,0.793748 -0.243416,0.497415 -0.243416,1.132413 0,0.634998 0.243416,1.15358 0.243416,0.507998 0.677331,0.80433 0.444499,0.28575 1.005414,0.28575 z"
         style="font-style:normal;font-variant:normal;font-weight:normal;font-stretch:normal;font-family:Quicksand;-inkscape-font-specification:Quicksand;stroke-width:0.264583;fill:#000000"
         id="path3503" />
      <path
         d="m 72.60185,61.034234 v 3.545405 q 0,0.402165 0.148166,0.550332 0.148166,0.137582 0.391582,0.137582 0.0635,0 0.15875,-0.02117 0.09525,-0.03175 0.148166,-0.03175 0.09525,0 0.15875,0.08467 0.07408,0.07408 0.07408,0.179916 0,0.148167 -0.169333,0.254 -0.169333,0.09525 -0.402166,0.09525 -0.285749,0 -0.507998,-0.05292 -0.222249,-0.05292 -0.433915,-0.317499 -0.201083,-0.264583 -0.201083,-0.846664 v -3.577155 h -0.772581 q -0.126999,0 -0.222249,-0.08467 -0.08467,-0.08467 -0.08467,-0.211666 0,-0.126999 0.08467,-0.211666 0.09525,-0.08467 0.222249,-0.08467 h 0.772581 v -1.174746 q 0,-0.137583 0.08467,-0.22225 0.09525,-0.09525 0.232833,-0.09525 0.137583,0 0.222249,0.09525 0.09525,0.08467 0.09525,0.22225 v 1.174746 h 1.05833 q 0.116416,0 0.201083,0.09525 0.09525,0.09525 0.09525,0.211665 0,0.127 -0.08467,0.211666 -0.08467,0.07408 -0.211666,0.07408 z"
         style="font-style:normal;font-variant:normal;font-weight:normal;font-stretch:normal;font-family:Quicksand;-inkscape-font-specification:Quicksand;stroke-width:0.264583;fill:#000000"
         id="path3505" />
      <path
         d="m 79.650303,62.812228 q 0,0.127 -0.09525,0.222249 -0.09525,0.08467 -0.22225,0.08467 h -4.000487 q 0,0.634998 0.253999,1.142996 0.264583,0.497415 0.740831,0.793747 0.486832,0.28575 1.142996,0.28575 0.507999,0 0.910164,-0.211666 0.402166,-0.211666 0.645582,-0.539749 0.116416,-0.09525 0.222249,-0.09525 0.105833,0 0.190499,0.08467 0.08467,0.08467 0.08467,0.190499 0,0.116417 -0.105833,0.22225 -0.338666,0.412748 -0.857248,0.677331 -0.507998,0.264582 -1.079496,0.264582 -0.814914,0 -1.439329,-0.349249 -0.624415,-0.349248 -0.973664,-0.973663 -0.349248,-0.634998 -0.349248,-1.460495 0,-0.867831 0.338665,-1.513412 0.349249,-0.656165 0.920747,-0.99483 0.571498,-0.349249 1.21708,-0.349249 0.634998,0 1.185329,0.296332 0.560915,0.296332 0.910164,0.867831 0.349249,0.571498 0.359832,1.354662 z m -2.455325,-1.904994 q -0.613832,0 -1.142997,0.423332 -0.518581,0.423332 -0.666748,1.217079 h 3.608906 v -0.08467 Q 78.941222,61.986731 78.67664,61.637482 78.412057,61.277649 78.009892,61.097733 77.61831,60.907234 77.194978,60.907234 Z"
         style="font-style:normal;font-variant:normal;font-weight:normal;font-stretch:normal;font-family:Quicksand;-inkscape-font-specification:Quicksand;stroke-width:0.264583;fill:#000000"
         id="path3507" />
      <path
         d="m 88.847176,63.119144 q 0,0.793747 -0.349249,1.439328 -0.349249,0.645582 -0.96308,1.015997 -0.613832,0.359832 -1.365246,0.359832 -0.751414,0 -1.365246,-0.359832 -0.613831,-0.370415 -0.96308,-1.015997 -0.349249,-0.645581 -0.349249,-1.439328 0,-0.793748 0.349249,-1.439329 0.349249,-0.645581 0.96308,-1.015997 0.613832,-0.370415 1.365246,-0.370415 0.751414,0 1.365246,0.370415 0.613831,0.370416 0.96308,1.015997 0.349249,0.645581 0.349249,1.439329 z m -0.634998,0 q 0,-0.634998 -0.264583,-1.142997 -0.264582,-0.507998 -0.740831,-0.793747 -0.465665,-0.296333 -1.037163,-0.296333 -0.571498,0 -1.037163,0.296333 -0.465666,0.285749 -0.740831,0.793747 -0.264583,0.507999 -0.264583,1.142997 0,0.624414 0.264583,1.132413 0.275165,0.507998 0.740831,0.80433 0.465665,0.28575 1.037163,0.28575 0.571498,0 1.037163,-0.28575 0.476249,-0.285749 0.740831,-0.793747 0.264583,-0.507998 0.264583,-1.142996 z"
         style="font-style:normal;font-variant:normal;font-weight:normal;font-stretch:normal;font-family:Quicksand;-inkscape-font-specification:Quicksand;stroke-width:0.264583;fill:#000000"
         id="path3509" />
      <path
         d="m 92.699488,60.293403 q 0.984247,0 1.439329,0.582081 0.465665,0.571498 0.465665,1.523995 v 3.11149 q 0,0.137583 -0.09525,0.232833 -0.09525,0.08467 -0.222249,0.08467 -0.137583,0 -0.232833,-0.08467 -0.08467,-0.09525 -0.08467,-0.232833 v -3.07974 q 0,-0.687914 -0.349249,-1.111246 -0.338666,-0.433916 -1.05833,-0.433916 -0.455082,0 -0.867831,0.211666 -0.402165,0.211666 -0.656164,0.571499 -0.253999,0.349248 -0.253999,0.761997 v 3.07974 q 0,0.137583 -0.09525,0.232833 -0.08467,0.08467 -0.222249,0.08467 -0.137583,0 -0.232833,-0.08467 -0.08467,-0.09525 -0.08467,-0.232833 v -4.741318 q 0,-0.137583 0.08467,-0.222249 0.09525,-0.09525 0.232833,-0.09525 0.137582,0 0.222249,0.09525 0.09525,0.08467 0.09525,0.222249 v 0.582082 q 0.285749,-0.455082 0.814914,-0.751415 0.539748,-0.306915 1.100663,-0.306915 z"
         style="font-style:normal;font-variant:normal;font-weight:normal;font-stretch:normal;font-family:Quicksand;-inkscape-font-specification:Quicksand;stroke-width:0.264583;fill:#000000"
         id="path3511" />
      <path
         d="m 100.21361,61.034234 v 3.545405 q 0,0.402165 0.14817,0.550332 0.14816,0.137582 0.39158,0.137582 0.0635,0 0.15875,-0.02117 0.0953,-0.03175 0.14816,-0.03175 0.0952,0 0.15875,0.08467 0.0741,0.07408 0.0741,0.179916 0,0.148167 -0.16934,0.254 -0.16933,0.09525 -0.40216,0.09525 -0.28575,0 -0.508,-0.05292 -0.22225,-0.05292 -0.433916,-0.317499 -0.201083,-0.264583 -0.201083,-0.846664 V 61.034234 H 98.80603 q -0.126999,0 -0.222249,-0.08467 -0.08467,-0.08467 -0.08467,-0.211666 0,-0.126999 0.08467,-0.211666 0.09525,-0.08467 0.222249,-0.08467 h 0.772581 v -1.174746 q 0,-0.137583 0.08467,-0.22225 0.09525,-0.09525 0.232832,-0.09525 0.13758,0 0.22225,0.09525 0.0953,0.08467 0.0953,0.22225 v 1.174746 h 1.05833 q 0.11642,0 0.20108,0.09525 0.0952,0.09525 0.0952,0.211665 0,0.127 -0.0847,0.211666 -0.0847,0.07408 -0.21167,0.07408 z"
         style="font-style:normal;font-variant:normal;font-weight:normal;font-stretch:normal;font-family:Quicksand;-inkscape-font-specification:Quicksand;stroke-width:0.264583;fill:#000000"
         id="path3513" />
      <path
         d="m 105.20891,60.378069 q 0.9525,0 1.41817,0.603248 0.46566,0.592665 0.46566,1.534579 v 2.995073 q 0,0.137583 -0.0953,0.232833 -0.0847,0.08467 -0.22225,0.08467 -0.13758,0 -0.23283,-0.08467 -0.0847,-0.09525 -0.0847,-0.232833 v -2.995073 q 0,-0.687915 -0.32808,-1.111247 -0.32808,-0.433915 -1.02658,-0.433915 -0.4445,0 -0.84666,0.211666 -0.39158,0.211666 -0.635,0.571498 -0.24342,0.349249 -0.24342,0.761998 v 2.995073 q 0,0.137583 -0.0953,0.232833 -0.0847,0.08467 -0.22225,0.08467 -0.13758,0 -0.23283,-0.08467 -0.0847,-0.09525 -0.0847,-0.232833 v -7.196643 q 0,-0.137583 0.0847,-0.22225 0.0953,-0.09525 0.23283,-0.09525 0.13759,0 0.22225,0.09525 0.0953,0.08467 0.0953,0.22225 v 3.100906 q 0.28575,-0.455082 0.79375,-0.740831 0.508,-0.296332 1.03716,-0.296332 z"
         style="font-style:normal;font-variant:normal;font-weight:normal;font-stretch:normal;font-family:Quicksand;-inkscape-font-specification:Quicksand;stroke-width:0.264583;fill:#000000"
         id="path3515" />
      <path
         d="m 113.32629,62.812228 q 0,0.127 -0.0953,0.222249 -0.0952,0.08467 -0.22224,0.08467 h -4.00049 q 0,0.634998 0.254,1.142996 0.26458,0.497415 0.74083,0.793747 0.48683,0.28575 1.14299,0.28575 0.508,0 0.91017,-0.211666 0.40216,-0.211666 0.64558,-0.539749 0.11642,-0.09525 0.22225,-0.09525 0.10583,0 0.1905,0.08467 0.0847,0.08467 0.0847,0.190499 0,0.116417 -0.10583,0.22225 -0.33866,0.412748 -0.85725,0.677331 -0.50799,0.264582 -1.07949,0.264582 -0.81492,0 -1.43933,-0.349249 -0.62442,-0.349248 -0.97366,-0.973663 -0.34925,-0.634998 -0.34925,-1.460495 0,-0.867831 0.33866,-1.513412 0.34925,-0.656165 0.92075,-0.99483 0.5715,-0.349249 1.21708,-0.349249 0.635,0 1.18533,0.296332 0.56091,0.296332 0.91016,0.867831 0.34925,0.571498 0.35983,1.354662 z m -2.45532,-1.904994 q -0.61383,0 -1.143,0.423332 -0.51858,0.423332 -0.66675,1.217079 h 3.60891 v -0.08467 q -0.0529,-0.476248 -0.3175,-0.825497 -0.26458,-0.359833 -0.66675,-0.539749 -0.39158,-0.190499 -0.81491,-0.190499 z"
         style="font-style:normal;font-variant:normal;font-weight:normal;font-stretch:normal;font-family:Quicksand;-inkscape-font-specification:Quicksand;stroke-width:0.264583;fill:#000000"
         id="path3517" />
      <path
         d="m 119.68684,65.934301 q -0.762,0 -1.35466,-0.253999 -0.58208,-0.253999 -1.13241,-0.793747 -0.127,-0.105833 -0.127,-0.254 0,-0.126999 0.0952,-0.232832 0.10583,-0.105833 0.23283,-0.105833 0.127,0 0.23283,0.105833 0.8255,0.910164 2.06375,0.910164 0.76199,0 1.25941,-0.359833 0.508,-0.359832 0.508,-0.941913 0,-0.455082 -0.254,-0.751414 -0.24342,-0.306916 -0.64558,-0.497416 -0.40217,-0.190499 -1.02658,-0.391582 -0.67733,-0.201082 -1.143,-0.444498 -0.45508,-0.243416 -0.74083,-0.645582 -0.28575,-0.412748 -0.28575,-1.037163 0,-0.560915 0.29633,-0.99483 0.30692,-0.433915 0.84667,-0.677331 0.55033,-0.253999 1.25941,-0.253999 0.64558,0 1.20649,0.222249 0.5715,0.211666 0.91017,0.613831 0.15875,0.179916 0.15875,0.306916 0,0.116416 -0.10583,0.222249 -0.10584,0.09525 -0.23284,0.09525 -0.10583,0 -0.17991,-0.07408 -0.28575,-0.338666 -0.762,-0.550332 -0.47625,-0.211666 -0.99483,-0.211666 -0.77258,0 -1.25941,0.349249 -0.48684,0.338666 -0.48684,0.931331 0,0.613831 0.46567,0.941913 0.46566,0.328082 1.3335,0.603248 0.75141,0.22225 1.22766,0.455082 0.47625,0.232833 0.77258,0.666748 0.30691,0.423332 0.30691,1.12183 0,0.539748 -0.31749,0.984247 -0.30692,0.433915 -0.86783,0.687914 -0.55034,0.253999 -1.25942,0.253999 z"
         style="font-style:normal;font-variant:normal;font-weight:normal;font-stretch:normal;font-family:Quicksand;-inkscape-font-specification:Quicksand;stroke-width:0.264583;fill:#000000"
         id="path3519" />
      <path
         d="m 128.04763,62.812228 q 0,0.127 -0.0952,0.222249 -0.0952,0.08467 -0.22224,0.08467 h -4.00049 q 0,0.634998 0.254,1.142996 0.26458,0.497415 0.74083,0.793747 0.48683,0.28575 1.14299,0.28575 0.508,0 0.91017,-0.211666 0.40216,-0.211666 0.64558,-0.539749 0.11642,-0.09525 0.22225,-0.09525 0.10583,0 0.1905,0.08467 0.0847,0.08467 0.0847,0.190499 0,0.116417 -0.10583,0.22225 -0.33866,0.412748 -0.85725,0.677331 -0.50799,0.264582 -1.07949,0.264582 -0.81492,0 -1.43933,-0.349249 -0.62442,-0.349248 -0.97366,-0.973663 -0.34925,-0.634998 -0.34925,-1.460495 0,-0.867831 0.33866,-1.513412 0.34925,-0.656165 0.92075,-0.99483 0.5715,-0.349249 1.21708,-0.349249 0.635,0 1.18533,0.296332 0.56091,0.296332 0.91016,0.867831 0.34925,0.571498 0.35983,1.354662 z m -2.45532,-1.904994 q -0.61383,0 -1.143,0.423332 -0.51858,0.423332 -0.66675,1.217079 h 3.60891 v -0.08467 q -0.0529,-0.476248 -0.3175,-0.825497 -0.26458,-0.359833 -0.66675,-0.539749 -0.39158,-0.190499 -0.81491,-0.190499 z"
         style="font-style:normal;font-variant:normal;font-weight:normal;font-stretch:normal;font-family:Quicksand;-inkscape-font-specification:Quicksand;stroke-width:0.264583;fill:#000000"
         id="path3521" />
      <path
         d="m 133.79435,60.420402 q 0.13759,0 0.22225,0.09525 0.0952,0.09525 0.0952,0.232832 v 4.762485 q 0,0.137583 -0.0952,0.232833 -0.0847,0.08467 -0.22225,0.08467 -0.13758,0 -0.23283,-0.08467 -0.0847,-0.09525 -0.0847,-0.232833 v -0.709081 q -0.26459,0.476249 -0.79375,0.804331 -0.52917,0.328082 -1.15358,0.328082 -0.70908,0 -1.28058,-0.370415 -0.56092,-0.370416 -0.889,-1.015997 -0.3175,-0.645581 -0.3175,-1.449912 0,-0.804331 0.32808,-1.439329 0.32809,-0.645581 0.889,-1.005413 0.5715,-0.359832 1.25941,-0.359832 0.635,0 1.16417,0.306915 0.52916,0.306916 0.79375,0.804331 v -0.656165 q 0,-0.137582 0.0847,-0.232832 0.0952,-0.09525 0.23283,-0.09525 z m -2.20132,4.921235 q 0.55033,0 0.98424,-0.28575 0.4445,-0.296332 0.68792,-0.80433 0.254,-0.518582 0.254,-1.15358 0,-0.613831 -0.254,-1.12183 -0.24342,-0.507998 -0.68792,-0.793747 -0.43391,-0.296333 -0.98424,-0.296333 -0.55033,0 -0.99483,0.285749 -0.43392,0.28575 -0.68792,0.793748 -0.24341,0.497415 -0.24341,1.132413 0,0.634998 0.24341,1.15358 0.24342,0.507998 0.67733,0.80433 0.4445,0.28575 1.00542,0.28575 z"
         style="font-style:normal;font-variant:normal;font-weight:normal;font-stretch:normal;font-family:Quicksand;-inkscape-font-specification:Quicksand;stroke-width:0.264583;fill:#000000"
         id="path3523" />
      <path
         d="m 135.46651,64.971221 q -0.0847,-0.137583 -0.0847,-0.232833 0,-0.137582 0.13759,-0.211666 0.0635,-0.0635 0.16933,-0.0635 0.127,0 0.23283,0.105833 0.62442,0.825497 1.66158,0.825497 0.508,0 0.87841,-0.232833 0.381,-0.243415 0.381,-0.698497 0,-0.444499 -0.34925,-0.666748 -0.34925,-0.222249 -0.97366,-0.380999 -0.87842,-0.222249 -1.37583,-0.571498 -0.49742,-0.359832 -0.49742,-1.047747 0,-0.433915 0.24342,-0.772581 0.24342,-0.349249 0.65617,-0.539748 0.42333,-0.190499 0.95249,-0.190499 0.45508,0 0.91017,0.179916 0.46566,0.169333 0.79374,0.550331 0.0953,0.07408 0.0953,0.211666 0,0.127 -0.10583,0.22225 -0.0741,0.0635 -0.1905,0.0635 -0.10583,0 -0.1905,-0.08467 -0.254,-0.285749 -0.60325,-0.433915 -0.34925,-0.148167 -0.75141,-0.148167 -0.49742,0 -0.85725,0.232833 -0.34925,0.232833 -0.34925,0.698498 0.0212,0.423332 0.381,0.645581 0.37042,0.222249 1.0795,0.402166 0.55033,0.137582 0.91016,0.306915 0.35983,0.169333 0.58208,0.476249 0.23284,0.306915 0.23284,0.814914 0,0.687914 -0.55034,1.100663 -0.55033,0.402165 -1.36524,0.402165 -1.29116,0 -2.05316,-0.96308 z"
         style="font-style:normal;font-variant:normal;font-weight:normal;font-stretch:normal;font-family:Quicksand;-inkscape-font-specification:Quicksand;stroke-width:0.264583;fill:#000000"
         id="path3525" />
      <path
         d="m 141.35083,65.510969 q 0,0.137583 -0.0952,0.232833 -0.0847,0.08467 -0.22225,0.08467 -0.13759,0 -0.23284,-0.08467 -0.0847,-0.09525 -0.0847,-0.232833 v -4.868317 q 0,-0.137583 0.0847,-0.22225 0.0952,-0.09525 0.23284,-0.09525 0.13758,0 0.22225,0.09525 0.0952,0.08467 0.0952,0.22225 z m -0.3175,-5.894898 q -0.21167,0 -0.32809,-0.09525 -0.11641,-0.105833 -0.11641,-0.296333 v -0.105833 q 0,-0.190499 0.11641,-0.285749 0.127,-0.105833 0.33867,-0.105833 0.42333,0 0.42333,0.391582 v 0.105833 q 0,0.1905 -0.11641,0.296333 -0.10584,0.09525 -0.3175,0.09525 z"
         style="font-style:normal;font-variant:normal;font-weight:normal;font-stretch:normal;font-family:Quicksand;-inkscape-font-specification:Quicksand;stroke-width:0.264583;fill:#000000"
         id="path3527" />
      <path
         d="m 147.39388,57.996827 q 0.13758,0 0.22225,0.09525 0.0952,0.08467 0.0952,0.22225 v 7.196643 q 0,0.137583 -0.0952,0.232833 -0.0847,0.08467 -0.22225,0.08467 -0.13758,0 -0.23283,-0.08467 -0.0847,-0.09525 -0.0847,-0.232833 v -0.740831 q -0.26458,0.486832 -0.79375,0.825498 -0.51858,0.338665 -1.15358,0.338665 -0.69849,0 -1.26999,-0.359832 -0.56092,-0.370415 -0.889,-1.015997 -0.32808,-0.645581 -0.32808,-1.449912 0,-0.793747 0.32808,-1.439328 0.32808,-0.645582 0.889,-1.005414 0.5715,-0.370415 1.25941,-0.370415 0.62441,0 1.15358,0.317499 0.52916,0.306915 0.80433,0.80433 v -3.100906 q 0,-0.137583 0.0847,-0.22225 0.0953,-0.09525 0.23283,-0.09525 z m -2.20133,7.34481 q 0.55033,0 0.98425,-0.28575 0.4445,-0.285749 0.68791,-0.793747 0.254,-0.518582 0.254,-1.15358 0,-0.624414 -0.254,-1.132413 -0.24341,-0.507998 -0.68791,-0.793747 -0.43392,-0.296333 -0.98425,-0.296333 -0.55033,0 -0.99483,0.296333 -0.43391,0.285749 -0.68791,0.793747 -0.24342,0.507999 -0.24342,1.132413 0,0.634998 0.24342,1.142997 0.254,0.507998 0.68791,0.80433 0.4445,0.28575 0.99483,0.28575 z"
         style="font-style:normal;font-variant:normal;font-weight:normal;font-stretch:normal;font-family:Quicksand;-inkscape-font-specification:Quicksand;stroke-width:0.264583;fill:#000000"
         id="path3529" />
      <path
         d="m 153.94493,62.812228 q 0,0.127 -0.0952,0.222249 -0.0952,0.08467 -0.22225,0.08467 h -4.00049 q 0,0.634998 0.254,1.142996 0.26458,0.497415 0.74083,0.793747 0.48683,0.28575 1.143,0.28575 0.508,0 0.91016,-0.211666 0.40217,-0.211666 0.64558,-0.539749 0.11642,-0.09525 0.22225,-0.09525 0.10584,0 0.1905,0.08467 0.0847,0.08467 0.0847,0.190499 0,0.116417 -0.10584,0.22225 -0.33866,0.412748 -0.85724,0.677331 -0.508,0.264582 -1.0795,0.264582 -0.81491,0 -1.43933,-0.349249 -0.62441,-0.349248 -0.97366,-0.973663 -0.34925,-0.634998 -0.34925,-1.460495 0,-0.867831 0.33867,-1.513412 0.34924,-0.656165 0.92074,-0.99483 0.5715,-0.349249 1.21708,-0.349249 0.635,0 1.18533,0.296332 0.56092,0.296332 0.91017,0.867831 0.34924,0.571498 0.35983,1.354662 z m -2.45533,-1.904994 q -0.61383,0 -1.14299,0.423332 -0.51859,0.423332 -0.66675,1.217079 h 3.6089 v -0.08467 q -0.0529,-0.476248 -0.3175,-0.825497 -0.26458,-0.359833 -0.66674,-0.539749 -0.39159,-0.190499 -0.81492,-0.190499 z"
         style="font-style:normal;font-variant:normal;font-weight:normal;font-stretch:normal;font-family:Quicksand;-inkscape-font-specification:Quicksand;stroke-width:0.264583;fill:#000000"
         id="path3531" />
    </g>
    <text
       xml:space="preserve"
       style="font-style:oblique;font-variant:normal;font-weight:300;font-stretch:normal;font-size:8.23776px;line-height:1.25;font-family:Quicksand;-inkscape-font-specification:'Quicksand Light Oblique';letter-spacing:0px;word-spacing:0px;fill:#000000;fill-opacity:1;stroke:none;stroke-width:0.264583"
       x="72.294365"
       y="80.042404"
       id="text3470"><tspan
         sodipodi:role="line"
         id="tspan3468"
         x="72.294365"
         y="80.042404"
         style="font-style:oblique;font-variant:normal;font-weight:300;font-stretch:normal;font-family:Quicksand;-inkscape-font-specification:'Quicksand Light Oblique';stroke-width:0.264583">made with VNES</tspan></text>
  </g>
</svg>
